<?xml version="1.0" standalone="no"?>
<!DOCTYPE svg PUBLIC "-//W3C//DTD SVG 20010904//EN"
 "http://www.w3.org/TR/2001/REC-SVG-20010904/DTD/svg10.dtd">
<svg version="1.0" xmlns="http://www.w3.org/2000/svg"
 width="1144.000000pt" height="1144.000000pt" viewBox="0 0 1144.000000 1144.000000"
 preserveAspectRatio="xMidYMid meet">
<metadata>
Created by potrace 1.11, written by Peter Selinger 2001-2013
</metadata>
<g transform="translate(0.000000,1144.000000) scale(0.100000,-0.100000)"
fill="#000000" stroke="none">
<path d="M2687 11433 c-2 -5 -3 -240 -3 -523 l1 -515 315 -2 c173 -1 353 -2
400 -2 l85 -1 0 -2072 0 -2073 -22 -42 c-30 -57 -47 -87 -53 -93 -9 -9 -51
-85 -57 -102 -3 -10 -9 -18 -14 -18 -5 0 -9 -4 -9 -10 0 -9 -129 -240 -140
-250 -3 -3 -11 -16 -17 -30 -18 -36 -59 -108 -70 -122 -6 -7 -23 -38 -39 -68
-16 -30 -31 -57 -35 -60 -3 -3 -19 -30 -35 -60 -59 -108 -87 -155 -99 -170 -7
-8 -25 -41 -41 -72 -15 -32 -32 -58 -36 -58 -4 0 -8 -5 -8 -10 0 -6 -25 -54
-57 -108 -111 -191 -163 -285 -163 -292 0 -5 -4 -10 -8 -12 -5 -1 -27 -37 -50
-78 -23 -41 -56 -97 -72 -125 -17 -27 -33 -57 -37 -65 -4 -8 -9 -17 -12 -20
-3 -3 -14 -21 -24 -40 -33 -62 -52 -95 -58 -100 -3 -3 -11 -20 -18 -37 -8 -18
-17 -33 -22 -33 -4 0 -11 -10 -15 -22 -4 -13 -22 -46 -40 -75 -18 -28 -30 -54
-27 -57 4 -3 2 -6 -4 -6 -6 0 -16 -13 -23 -30 -7 -16 -17 -30 -23 -30 -6 0 -8
-3 -4 -6 4 -5 -28 -66 -93 -174 -49 -81 -101 -183 -111 -220 -7 -25 -14 -52
-17 -60 -11 -38 -9 -175 3 -233 12 -59 54 -162 72 -181 5 -4 8 -11 8 -14 0 -4
26 -50 57 -102 31 -52 62 -107 69 -123 7 -15 16 -27 21 -27 4 0 8 -4 8 -9 0
-6 29 -60 65 -121 36 -61 65 -113 65 -115 0 -2 25 -45 55 -95 30 -50 55 -92
55 -94 0 -4 118 -207 195 -336 18 -30 42 -73 54 -95 12 -22 26 -47 31 -55 13
-20 95 -161 104 -180 4 -8 17 -31 29 -52 41 -68 262 -452 266 -463 2 -5 7 -12
10 -15 6 -5 11 -14 59 -99 14 -25 34 -59 44 -76 10 -16 21 -38 24 -47 4 -10
10 -18 15 -18 5 0 9 -4 9 -8 0 -5 15 -35 33 -66 32 -59 45 -82 109 -191 19
-33 79 -136 133 -230 110 -190 148 -243 214 -298 49 -40 152 -94 211 -112 48
-14 197 -19 590 -20 261 -1 480 1 487 3 11 3 42 54 120 192 11 19 43 73 70
120 28 47 60 101 70 120 11 19 80 139 153 265 73 127 141 246 152 265 11 19
37 64 58 100 l37 65 -632 3 -632 2 -18 40 c-10 22 -22 40 -27 40 -4 0 -8 4 -8
9 0 6 -28 59 -63 119 -35 60 -67 115 -70 123 -4 8 -20 34 -35 59 -15 25 -44
77 -66 115 -21 39 -46 81 -56 95 -9 14 -20 35 -24 48 -4 12 -12 22 -17 22 -5
0 -9 4 -9 9 0 8 -54 105 -151 269 -27 45 -49 87 -49 92 0 6 -4 10 -10 10 -5 0
-10 5 -10 10 0 10 -89 170 -100 180 -3 3 -11 16 -17 30 -17 34 -46 84 -130
225 -7 11 -15 27 -19 35 -4 8 -34 59 -66 113 -32 55 -58 103 -58 107 0 5 -6
15 -13 22 -7 7 -30 45 -51 83 -21 39 -58 103 -82 142 -24 40 -44 74 -44 77 0
2 -20 37 -44 77 -51 83 -55 59 34 219 26 47 64 117 85 155 21 39 57 104 80
145 23 41 61 111 85 155 23 44 50 94 60 110 10 17 29 50 42 75 41 76 204 371
243 440 19 36 43 81 53 100 9 19 19 37 22 40 6 6 36 61 72 130 13 25 26 47 30
48 5 2 8 8 8 14 0 6 10 27 22 47 12 19 23 41 24 48 1 7 9 20 18 29 9 8 16 19
16 24 0 5 22 46 48 92 27 46 55 98 63 116 7 17 17 32 21 32 5 0 8 5 8 10 0 6
20 46 45 90 24 43 58 105 75 137 39 73 91 167 117 213 79 137 128 247 139 307
3 15 8 31 12 37 3 6 7 132 9 279 1 148 4 272 8 275 3 3 299 7 658 8 359 0 655
2 658 3 3 0 5 232 6 515 0 463 -2 515 -16 518 -9 2 -307 3 -663 2 l-648 0 -1
25 c0 33 0 782 0 798 1 9 149 12 644 12 353 0 652 0 665 1 l22 0 0 519 0 520
-602 0 c-332 0 -632 0 -668 0 l-65 1 -25 48 c-13 26 -27 49 -31 52 -3 3 -18
28 -33 55 -14 28 -40 73 -56 100 -17 28 -33 58 -37 68 -3 9 -10 17 -15 17 -5
0 -7 4 -3 9 3 5 1 12 -5 16 -6 3 -20 25 -31 48 -12 23 -24 44 -28 47 -3 3 -13
19 -22 35 -32 63 -64 120 -70 125 -6 5 -81 138 -88 155 -2 6 -12 21 -21 35 -9
14 -30 50 -47 80 -16 30 -94 164 -172 297 -77 134 -141 247 -141 253 0 5 -4
10 -10 10 -5 0 -10 6 -10 14 0 7 -7 19 -15 26 -9 7 -13 15 -11 18 3 2 -8 24
-24 48 -17 23 -30 45 -30 49 0 3 -11 22 -23 43 -13 20 -41 69 -62 107 -21 39
-44 76 -51 83 -10 9 -111 12 -438 12 -234 0 -427 -3 -429 -7z"/>
<path d="M4901 11418 c7 -13 22 -39 34 -58 23 -37 58 -99 108 -190 16 -30 35
-61 41 -69 12 -15 32 -48 42 -71 4 -8 47 -82 95 -165 48 -82 96 -167 108 -187
28 -51 52 -92 94 -163 20 -33 43 -74 52 -92 l17 -32 591 0 c326 0 617 0 647
-1 l55 0 0 -2112 c0 -1162 3 -2135 7 -2163 15 -98 75 -244 140 -337 10 -14 18
-28 18 -31 0 -6 150 -270 162 -284 6 -7 7 -13 2 -13 -5 0 -4 -4 1 -8 10 -7 16
-17 63 -101 13 -25 40 -72 58 -104 19 -32 34 -60 34 -62 0 -3 18 -34 40 -70
22 -36 40 -67 40 -70 0 -2 29 -54 65 -116 36 -61 65 -113 65 -115 0 -2 13 -25
28 -51 16 -27 51 -88 79 -138 28 -49 89 -158 137 -242 47 -84 86 -157 86 -163
0 -5 4 -10 8 -10 5 0 14 -16 22 -35 8 -19 17 -35 21 -35 4 0 9 -8 12 -17 3
-10 21 -45 40 -78 19 -33 47 -82 62 -110 16 -27 37 -63 47 -80 10 -16 21 -37
25 -45 4 -8 26 -48 50 -88 24 -41 43 -80 43 -87 0 -7 3 -15 8 -17 8 -3 64 -96
106 -179 l29 -56 -54 -94 c-29 -52 -56 -96 -59 -99 -3 -3 -13 -21 -24 -40 -28
-53 -65 -117 -111 -195 -22 -38 -44 -77 -48 -85 -4 -8 -21 -37 -37 -65 -17
-27 -33 -57 -37 -65 -3 -8 -12 -22 -18 -30 -7 -8 -25 -37 -39 -65 -15 -27 -32
-59 -39 -70 -36 -59 -74 -126 -131 -230 -6 -11 -14 -22 -17 -25 -3 -3 -14 -21
-24 -40 -10 -19 -29 -53 -43 -75 -14 -22 -25 -42 -25 -45 0 -3 -18 -33 -39
-68 -21 -34 -38 -67 -38 -72 0 -6 -4 -10 -9 -10 -5 0 -11 -8 -14 -17 -3 -10
-19 -40 -36 -68 -16 -27 -36 -61 -44 -75 -57 -103 -72 -128 -88 -152 -11 -14
-19 -29 -19 -33 0 -3 -20 -39 -43 -78 -24 -40 -57 -94 -72 -122 -40 -70 -83
-145 -104 -180 -10 -16 -29 -50 -43 -75 -73 -129 -333 -578 -347 -600 -25 -39
-71 -123 -77 -142 -4 -10 -10 -18 -15 -18 -5 0 -9 -5 -9 -10 0 -6 -27 -55 -60
-110 -33 -55 -60 -101 -60 -104 0 -2 -25 -46 -55 -97 -30 -51 -55 -96 -55 -99
0 -3 235 -5 523 -4 455 1 530 3 586 17 65 18 122 42 176 74 41 25 165 151 165
168 0 7 4 15 8 17 4 2 48 73 97 158 49 85 91 157 94 160 3 3 7 10 8 17 1 6 14
29 29 50 14 21 35 58 47 82 37 73 41 81 49 81 5 0 8 4 8 9 0 6 17 38 37 73 41
68 69 119 104 186 13 23 27 42 31 42 4 0 8 5 8 10 0 9 35 71 164 293 71 123
332 577 343 597 8 14 23 39 33 55 11 17 23 36 27 44 3 8 35 63 70 123 35 60
63 111 63 114 0 3 8 17 19 32 20 30 197 336 244 422 16 30 36 62 43 71 8 8 14
19 14 22 0 4 12 26 26 49 68 107 127 247 126 295 0 5 3 13 7 18 15 21 3 183
-20 253 -14 45 -101 214 -119 232 -3 3 -12 19 -21 35 -45 83 -81 147 -123 218
-25 43 -46 82 -46 86 0 5 -4 11 -8 13 -4 2 -23 30 -41 63 -19 33 -43 76 -54
95 -11 19 -27 46 -37 60 -10 14 -19 30 -20 35 -2 6 -8 19 -15 30 -17 28 -83
141 -113 195 -32 59 -179 311 -192 330 -6 8 -14 25 -20 37 -5 12 -20 39 -33
60 -26 41 -198 337 -242 418 -16 28 -31 52 -34 55 -3 3 -21 34 -40 70 -19 36
-42 76 -52 89 -11 13 -19 28 -19 32 0 5 -18 38 -40 74 -22 36 -40 67 -40 70 0
3 -15 28 -34 57 -18 29 -45 76 -60 103 -15 28 -35 64 -45 80 -116 194 -112
184 -114 311 -1 63 2 114 6 114 4 0 4 8 -2 17 -5 10 -5 26 0 40 5 13 4 25 -1
28 -6 3 -6 15 0 29 5 13 6 27 3 30 -10 9 -9 206 0 206 5 0 5 5 1 11 -9 16 -11
139 -1 139 5 0 5 5 1 11 -3 6 -6 45 -5 87 2 103 2 90 -1 235 -2 70 1 127 5
127 4 0 4 8 -2 17 -5 10 -5 26 0 40 5 13 4 25 -1 28 -6 3 -6 15 0 29 5 13 6
27 3 30 -10 9 -9 206 0 206 5 0 5 5 1 11 -9 16 -11 139 -1 139 5 0 5 5 1 11
-3 6 -6 45 -5 87 2 103 2 90 -1 235 -2 70 1 127 5 127 4 0 4 8 -2 17 -5 10 -5
26 0 40 5 13 4 25 -1 28 -6 3 -6 15 0 29 5 13 6 27 3 30 -9 9 -10 206 -1 206
4 0 5 7 1 16 -9 24 -9 274 0 274 4 0 4 8 -2 17 -5 10 -5 26 0 40 5 13 4 25 -1
28 -6 3 -6 15 0 29 5 13 6 27 3 30 -10 9 -9 206 0 206 5 0 5 5 1 11 -9 16 -11
139 -1 139 5 0 5 5 1 11 -3 6 -6 45 -5 87 2 103 2 90 -1 235 -2 70 1 127 5
127 4 0 4 8 -2 17 -5 10 -5 26 0 40 5 13 4 25 -1 28 -5 3 -6 15 0 29 4 12 5
27 2 33 -8 12 -7 202 1 209 2 3 184 6 403 7 l399 2 3 523 2 522 -1920 0 -1921
0 12 -22z"/>
<path d="M5677 5617 c-36 -62 -74 -128 -85 -147 -11 -19 -56 -97 -99 -174
l-80 -138 67 -117 c37 -64 81 -140 99 -169 17 -29 31 -57 31 -62 0 -6 5 -10
10 -10 6 0 10 -5 10 -11 0 -12 76 -145 97 -170 7 -9 10 -19 6 -22 -3 -4 144
-7 328 -7 l334 0 21 33 c22 33 79 132 103 180 8 15 18 27 23 27 4 0 8 6 8 13
0 6 18 41 40 77 21 36 50 86 64 112 14 26 36 64 49 84 l25 36 -36 66 c-19 37
-46 84 -59 104 -13 21 -23 42 -23 47 0 5 -4 11 -8 13 -6 2 -106 171 -132 223
-3 5 -20 35 -38 66 l-33 57 -329 0 -328 0 -65 -111z"/>
<path d="M4468 4122 c-16 -2 -28 -7 -28 -13 0 -5 -13 -30 -29 -56 -15 -27 -81
-140 -146 -253 -65 -113 -127 -217 -137 -232 -11 -16 -16 -28 -13 -28 4 0 -3
-12 -14 -26 -12 -15 -21 -33 -21 -40 0 -8 -4 -14 -9 -14 -5 0 -11 -8 -14 -17
-4 -10 -19 -40 -36 -68 l-29 -50 20 -40 c12 -22 23 -42 27 -45 3 -3 13 -19 22
-35 8 -17 51 -91 94 -165 43 -74 127 -220 187 -325 l109 -190 459 1 c253 0
461 2 464 5 3 3 184 314 278 479 11 19 56 96 99 171 44 74 79 140 79 145 0 5
-23 46 -50 92 -28 46 -50 87 -50 93 0 5 -4 9 -10 9 -5 0 -10 5 -10 10 0 6 -38
76 -85 156 -47 80 -85 149 -85 154 0 6 -4 10 -9 10 -5 0 -12 11 -15 25 -4 14
-11 25 -16 25 -6 0 -10 6 -10 14 0 7 -9 25 -21 40 -11 14 -17 26 -13 26 4 0 1
8 -7 18 -8 9 -23 33 -33 53 -41 79 6 72 -483 73 -241 1 -450 0 -465 -2z"/>
<path d="M5906 2518 c-9 -5 -16 -15 -16 -23 0 -7 -6 -20 -12 -27 -7 -7 -22
-30 -33 -50 -62 -114 -150 -263 -157 -266 -4 -2 -8 -9 -8 -16 0 -6 -11 -27
-24 -46 l-23 -34 28 -49 c16 -26 29 -52 29 -57 0 -6 4 -10 9 -10 5 0 15 -16
22 -35 7 -19 17 -35 21 -35 4 0 8 -5 8 -10 0 -6 12 -29 27 -53 14 -23 40 -67
56 -97 16 -30 35 -62 42 -70 7 -8 16 -25 19 -37 7 -22 7 -22 280 -23 248 0
274 1 288 17 8 10 52 83 97 163 45 80 87 152 92 160 5 8 24 42 42 74 l34 59
-130 226 c-71 124 -133 231 -139 236 -11 13 -530 15 -552 3z"/>
</g>
</svg>
