<?xml version="1.0" encoding="UTF-8"?>
<svg width="190px" height="286px" viewBox="0 0 190 286" version="1.1" xmlns="http://www.w3.org/2000/svg" xmlns:xlink="http://www.w3.org/1999/xlink">
    <!-- Generator: Sketch 43.2 (39069) - http://www.bohemiancoding.com/sketch -->
    <title>beaker</title>
    <desc>Created with Sketch.</desc>
    <defs></defs>
    <g id="Page-1" stroke="none" stroke-width="1" fill="none" fill-rule="evenodd">
        <g id="beaker" transform="translate(0.000000, -1.000000)" fill="#FEFEFE">
            <path d="M67.4508,120.144 L67.4508,131.4972 C67.3798,134.2972 66.5488,137.1972 65.0368,139.8162 L30.5328,202.5822 L62.6808,258.2662 L94.2498,258.2682 L77.8928,286.6062 L54.4988,286.6062 C49.4368,286.6062 44.7588,283.9052 42.2278,279.5212 L1.8988,209.6682 C-0.6322,205.2842 -0.6322,199.8822 1.8988,195.4972 L39.1108,131.0462 L39.1108,27.2032 L19.0848,27.2032 L19.0848,0.9992 L40.7218,0.9992 L67.4506845,47.294 L100.734,47.294 L100.734,73.273 L67.4508,73.273 L67.4508,94.166 L100.668,94.166 L100.668,120.144 L67.4508,120.144 Z" id="left"></path>
            <path d="M187.7589,195.4976 L149.9699,130.0466 L149.9699,27.2026 L170.2399,27.2026 L170.2399,0.9996 L74.2179,0.9996 L89.3439,27.2026 L121.6299,27.2026 L121.6299,131.2946 C121.6089,131.7526 121.6079,132.2126 121.6299,132.6756 L121.6299,133.1186 L121.6439,133.1186 C121.8179,135.4006 122.5149,137.7006 123.7359,139.8156 L159.1249,202.5826 L110.6139,286.6056 L135.1569,286.6056 C140.2199,286.6056 144.8989,283.9046 147.4299,279.5206 L187.7589,209.6686 C190.2899,205.2836 190.2899,199.8826 187.7589,195.4976" id="right"></path>
            <polygon id="bubble-1" points="113.3556 223.8423 99.7086 223.8423 92.8846 235.6613 99.7086 247.4813 113.3556 247.4813 120.1796 235.6613"></polygon>
            <polygon id="bubble-2" points="86.3243 183.939 63.2853 183.939 51.7653 203.891 63.2853 223.842 86.3243 223.842 97.8433 203.891"></polygon>
            <polygon id="bubble-3" points="111.963 143.8033 95.529 143.8033 87.313 158.0343 95.529 172.2673 111.963 172.2673 120.18 158.0343"></polygon>
        </g>
    </g>
</svg>