<?xml version="1.0" encoding="UTF-8"?>
<svg width="75px" height="24px" viewBox="0 0 75 24" version="1.1" xmlns="http://www.w3.org/2000/svg" xmlns:xlink="http://www.w3.org/1999/xlink">
    <!-- Generator: Sketch 43.2 (39069) - http://www.bohemiancoding.com/sketch -->
    <title>logo_stacked_inverted_notag</title>
    <desc>Created with Sketch.</desc>
    <defs></defs>
    <g id="Page-1" stroke="none" stroke-width="1" fill="none" fill-rule="evenodd">
        <g id="logo_stacked_inverted_notag">
            <g id="logo">
                <path d="M17.4890467,12.9822056 L12.6634766,12.9822056 L15.1188785,8.49846729 L17.4890467,12.9822056 L17.4890467,12.9822056 Z M17.0317009,5.02923364 L16.9368224,4.86482243 L13.5191776,4.86482243 L13.4254206,5.03035514 L5.77749533,18.5448224 L5.50183178,19.0328972 L9.40149533,19.0328972 L9.49323364,18.8581682 L10.9733832,16.0728224 L19.1470654,16.0728224 L20.6781308,18.8626542 L20.7709907,19.0328972 L25.0642991,19.0328972 L24.7837009,18.5432523 L17.0317009,5.02923364 L17.0317009,5.02923364 Z" id="Fill-27" fill="#FFFFFF"></path>
                <path d="M38.9970841,4.86482243 L30.9310654,4.86482243 C29.5585794,4.86482243 28.6263925,5.10684112 28.0795514,5.60433645 C27.5217196,6.10945794 27.2514393,7.01943925 27.2514393,8.38609346 L27.2514393,15.510729 C27.2514393,16.8771589 27.5217196,17.7853458 28.0795514,18.2922617 C28.6254953,18.789757 29.5585794,19.0328972 30.9310654,19.0328972 L38.9970841,19.0328972 C40.3682243,19.0328972 41.3001869,18.789757 41.8490467,18.2922617 C42.4046355,17.7853458 42.6753645,16.8771589 42.6753645,15.510729 L42.6753645,13.6468037 L42.4158505,13.5936449 L39.2731963,12.9373458 L38.8795514,12.8559252 L38.8795514,15.8379813 L31.0477009,15.8379813 L31.0477009,7.92672897 L38.8795514,7.92672897 L38.8795514,10.5485607 L39.2568224,10.490243 L42.4008224,9.99229907 L42.6753645,9.94878505 L42.6753645,9.66975701 C42.6753645,7.1768972 42.4423178,6.47102804 42.2666916,6.15790654 C41.8290841,5.30242991 40.728,4.86482243 38.9970841,4.86482243" id="Fill-28" fill="#FFFFFF"></path>
                <path d="M59.2607103,11.8171963 C59.2607103,13.4505421 58.7322617,14.5399626 57.6468785,15.1466916 C56.8268411,15.6058318 55.4705047,15.8379813 53.616,15.8379813 L49.883215,15.8379813 L49.883215,7.92672897 L55.1345047,7.92672897 C57.9102056,7.92672897 59.2607103,9.19895327 59.2607103,11.8171963 L59.2607103,11.8171963 Z M60.8088224,6.5048972 C59.4311776,5.41771963 57.5125234,4.86482243 55.1080374,4.86482243 L46.0874019,4.86482243 L46.0874019,19.0328972 L54.2962991,19.0328972 C56.9502056,19.0328972 58.8222056,18.6728972 60.0201869,17.9351776 C62.1057196,16.6382804 63.1617196,14.5982804 63.1617196,11.8699065 C63.1617196,9.52261682 62.3706168,7.71745794 60.8088224,6.5048972 L60.8088224,6.5048972 Z" id="Fill-29" fill="#FFFFFF"></path>
                <polyline id="Fill-30" fill="#F36B25" points="53.0424673 21.0695327 65.827514 21.0695327 65.827514 2.82684112 53.0417944 2.82684112 49.219514 0.0928598131 68.5608224 0.0928598131 68.5608224 23.8028411 49.2201869 23.8028411 53.0424673 21.0695327"></polyline>
                <polyline id="Fill-31" fill="#FFFFFF" points="46.0874019 0.0928598131 49.9096822 2.82684112 2.83626168 2.82684112 2.83626168 21.0695327 49.9105794 21.0695327 46.0882991 23.8028411 0.102728972 23.8028411 0.102728972 0.0928598131 46.0874019 0.0928598131"></polyline>
            </g>
            <path d="M73.6785355,0.0919836318 L73.346464,0.996878662 L72.9901601,0.0919836318 L72.6385682,0.0919836318 L72.6385682,1.35789431 L72.8698964,1.35789431 L72.8698964,0.313215097 L73.2791522,1.35789431 L73.4090639,1.35789431 L73.7987993,0.313215097 L73.7987993,1.35789431 L74.0299032,1.35789431 L74.0299032,0.0919836318 L73.6785355,0.0919836318 Z M71.2956976,0.0919836318 L71.2956976,0.279559195 L71.7002416,0.279559195 L71.7002416,1.35789431 L71.955129,1.35789431 L71.955129,0.279559195 L72.3596729,0.279559195 L72.3596729,0.0919836318 L71.2956976,0.0919836318 Z" id="tm" fill="#FFFFFF"></path>
        </g>
    </g>
</svg>